<?xml version="1.0" standalone="no"?>
<!DOCTYPE svg PUBLIC "-//W3C//DTD SVG 20010904//EN"
 "http://www.w3.org/TR/2001/REC-SVG-20010904/DTD/svg10.dtd">
<svg version="1.0" xmlns="http://www.w3.org/2000/svg"
 width="150.000000pt" height="150.000000pt" viewBox="0 0 150.000000 150.000000"
 preserveAspectRatio="xMidYMid meet">

<g transform="translate(0.000000,150.000000) scale(0.100000,-0.100000)"
fill="#000000" stroke="none">
<path d="M904 1182 c-94 -45 -125 -57 -181 -72 -36 -9 -43 -15 -43 -35 0 -29
-7 -31 -32 -9 -17 16 -23 13 -105 -62 -49 -44 -151 -136 -227 -204 l-139 -125
61 -3 62 -3 0 -190 0 -190 142 3 143 3 3 123 3 122 39 0 39 0 3 -122 3 -123
143 -3 142 -3 0 100 0 99 29 -11 c26 -9 34 -7 71 18 67 47 155 150 199 234 47
91 81 219 81 308 l0 62 -37 10 c-21 6 -42 11 -46 11 -5 0 -57 23 -116 50 -59
28 -119 50 -132 50 -14 0 -61 -17 -105 -38z m-240 -244 c14 -14 31 -48 41 -83
25 -89 67 -172 124 -243 l51 -62 0 -85 0 -85 -60 0 -60 0 0 125 0 125 -130 0
-130 0 0 -125 0 -125 -60 0 -60 0 0 183 1 182 120 108 c66 59 124 107 129 107
5 0 20 -10 34 -22z"/>
</g>
</svg>
